HIERARCHY
ROOT Hips
{
	OFFSET 0.000000 0.000000 0.000000
	CHANNELS 6 Xposition Yposition Zposition Xrotation Yrotation Zrotation
	JOINT LeftUpLeg_virtual
	{
		OFFSET 0.000000 0.000000 0.000000
		CHANNELS 3 Xrotation Yrotation Zrotation
		JOINT LeftUpLeg
		{
			OFFSET 15.427100 -6.655098 0.678600
			CHANNELS 3 Xrotation Yrotation Zrotation
			JOINT LeftLeg
			{
				OFFSET 4.081073 -39.591068 13.024000
				CHANNELS 3 Xrotation Yrotation Zrotation
				JOINT LeftFoot
				{
					OFFSET -4.081074 -37.707932 -15.979700
					CHANNELS 3 Xrotation Yrotation Zrotation
					JOINT LeftToeBase
					{
						OFFSET 5.346399 -15.068900 20.645000
						CHANNELS 3 Xrotation Yrotation Zrotation
						JOINT LeftToe_End
						{
							OFFSET 2.754700 0.931300 11.300900
							CHANNELS 3 Xrotation Yrotation Zrotation
							End Site
							{
								OFFSET 0 0 0
							}
						}
					}
				}
			}
		}
	}
	JOINT RightUpLeg_virtual
	{
		OFFSET 0.000000 0.000000 0.000000
		CHANNELS 3 Xrotation Yrotation Zrotation
		JOINT RightUpLeg
		{
			OFFSET -15.569500 -6.655098 0.678600
			CHANNELS 3 Xrotation Yrotation Zrotation
			JOINT RightLeg
			{
				OFFSET -4.081825 -39.591045 13.023800
				CHANNELS 3 Xrotation Yrotation Zrotation
				JOINT RightFoot
				{
					OFFSET 4.081824 -37.707954 -15.979600
					CHANNELS 3 Xrotation Yrotation Zrotation
					JOINT RightToeBase
					{
						OFFSET -5.346400 -15.068900 20.645000
						CHANNELS 3 Xrotation Yrotation Zrotation
						JOINT RightToe_End
						{
							OFFSET -2.754700 0.931300 11.300900
							CHANNELS 3 Xrotation Yrotation Zrotation
							End Site
							{
								OFFSET 0 0 0
							}
						}
					}
				}
			}
		}
	}
	JOINT Spine_virtual
	{
		OFFSET 0.000000 0.000000 0.000000
		CHANNELS 3 Xrotation Yrotation Zrotation
		JOINT Spine
		{
			OFFSET -0.279200 12.230698 -2.892100
			CHANNELS 3 Xrotation Yrotation Zrotation
			JOINT Spine1
			{
				OFFSET -0.232667 10.192268 -1.242267
				CHANNELS 3 Xrotation Yrotation Zrotation
				JOINT Spine1_split
				{
					OFFSET -0.232667 10.192268 -1.242267
					CHANNELS 3 Xrotation Yrotation Zrotation
					JOINT Spine2
					{
						OFFSET -0.232667 10.192268 -1.242267
						CHANNELS 3 Xrotation Yrotation Zrotation
						JOINT Neck_virtual
						{
							OFFSET 0.000000 0.000000 0.000000
							CHANNELS 3 Xrotation Yrotation Zrotation
							JOINT Neck
							{
								OFFSET -0.418800 17.814194 8.416900
								CHANNELS 3 Xrotation Yrotation Zrotation
								JOINT Head
								{
									OFFSET 0.000000 7.031097 3.806800
									CHANNELS 3 Xrotation Yrotation Zrotation
									JOINT HeadTop_End
									{
										OFFSET 0.000000 24.646606 12.978600
										CHANNELS 3 Xrotation Yrotation Zrotation
										End Site
										{
											OFFSET 0 0 0
										}
									}
								}
							}
						}
						JOINT LeftShoulder_virtual
						{
							OFFSET 0.000000 0.000000 0.000000
							CHANNELS 3 Xrotation Yrotation Zrotation
							JOINT LeftShoulder
							{
								OFFSET 8.476499 7.247704 -3.868750
								CHANNELS 3 Xrotation Yrotation Zrotation
								JOINT LeftShoulder_split
								{
									OFFSET 8.476499 7.247704 -3.868750
									CHANNELS 3 Xrotation Yrotation Zrotation
									JOINT LeftArm
									{
										OFFSET 9.308998 -2.777710 0.208600
										CHANNELS 3 Xrotation Yrotation Zrotation
										JOINT LeftForeArm
										{
											OFFSET 29.972298 0.000000 0.000000
											CHANNELS 3 Xrotation Yrotation Zrotation
											JOINT LeftHand
											{
												OFFSET 26.026505 0.000000 0.000000
												CHANNELS 3 Xrotation Yrotation Zrotation
												End Site
												{
													OFFSET 0 0 0
												}
											}
										}
									}
								}
							}
						}
						JOINT RightShoulder_virtual
						{
							OFFSET 0.000000 0.000000 0.000000
							CHANNELS 3 Xrotation Yrotation Zrotation
							JOINT RightShoulder
							{
								OFFSET -7.570500 7.247704 -3.868750
								CHANNELS 3 Xrotation Yrotation Zrotation
								JOINT RightShoulder_split
								{
									OFFSET -7.570500 7.247704 -3.868750
									CHANNELS 3 Xrotation Yrotation Zrotation
									JOINT RightArm
									{
										OFFSET -9.308998 -2.777710 0.208500
										CHANNELS 3 Xrotation Yrotation Zrotation
										JOINT RightForeArm
										{
											OFFSET -29.972300 0.000000 0.000000
											CHANNELS 3 Xrotation Yrotation Zrotation
											JOINT RightHand
											{
												OFFSET -26.026505 0.000000 0.000000
												CHANNELS 3 Xrotation Yrotation Zrotation
												End Site
												{
													OFFSET 0 0 0
												}
											}
										}
									}
								}
							}
						}
					}
				}
			}
		}
	}
}
MOTION
Frames: 4
Frame Time: 0.03333333
2.416986 88.286629 3.306686 0.000000 0.000000 0.000000 -31.957198 -41.670725 -20.712409 -1.853523 10.162354 4.945019 35.661599 1.801938 -2.636142 -8.639537 5.705204 2.986185 -6.174222 -0.061088 -0.020142 0.000000 0.000000 0.000000 -29.455976 -37.519243 -18.569741 16.288697 -11.708749 -6.763635 22.125107 6.280315 -5.230041 -16.282298 -13.805084 6.330401 -2.769580 0.484759 0.528567 0.000000 0.000000 0.000000 -31.863287 -39.363920 -20.809583 11.946626 -5.312613 0.302620 2.788610 -2.093064 0.286638 0.452678 1.890778 -0.006890 0.000000 0.000000 0.000000 2.877168 -2.149160 -0.003209 0.398426 0.676586 -1.840159 -6.778105 -2.257944 5.115998 0.000000 0.000000 0.000000 3.291285 -2.344668 0.168043 0.294750 -17.451173 -10.507858 0.376392 -0.295058 -0.687027 -19.832301 2.227577 -38.638626 2.610876 -66.553336 3.214559 0.000000 0.000000 0.000000 2.910578 -2.157231 0.184353 1.023029 10.925329 15.394591 0.728140 1.716665 -0.981406 -10.511425 -5.531276 62.394413 -0.348427 41.868660 1.283033 0.000000 0.000000 0.000000 
2.978813 88.365463 4.058865 0.000000 0.000000 0.000000 -32.908733 -43.685084 -22.485490 0.118194 11.777311 5.457990 33.945070 1.746999 -4.285778 -10.127518 7.478939 6.039051 -6.199690 -0.192588 0.229358 0.000000 0.000000 0.000000 -30.359112 -39.300550 -20.199987 15.268756 -11.335795 -7.485483 22.136285 6.489708 -6.189532 -14.620546 -13.687361 7.677655 -2.661440 0.448081 0.163297 0.000000 0.000000 0.000000 -32.896448 -41.039571 -22.473747 11.978079 -5.360026 0.278684 2.808386 -2.086466 0.281355 0.420683 1.834683 0.016186 0.000000 0.000000 0.000000 2.869596 -2.131531 0.001014 0.489877 0.626106 -1.814486 -6.897502 -2.165981 5.011506 0.000000 0.000000 0.000000 3.290726 -2.308744 0.162006 0.327885 -17.538696 -10.477805 0.191461 -0.248007 -0.686692 -19.607245 2.137828 -38.468558 2.652783 -66.699891 3.224655 0.000000 0.000000 0.000000 2.991063 -2.128041 0.169671 1.030672 10.957641 15.518343 0.780009 1.657427 -1.087973 -10.576799 -5.570714 62.539705 -0.304219 41.780083 1.272726 0.000000 0.000000 0.000000 
3.583661 88.417900 4.854202 0.000000 0.000000 0.000000 -33.946703 -45.568130 -24.243297 1.880510 12.909961 5.666140 32.505400 1.684266 -5.638737 -11.646340 9.185016 8.469293 -6.114536 -0.279111 0.330547 0.000000 0.000000 0.000000 -31.281095 -41.100568 -21.810228 14.385148 -10.802975 -7.988823 22.318647 6.047629 -7.261648 -13.358595 -14.091619 8.111855 -2.104639 0.415240 0.054150 0.000000 0.000000 0.000000 -33.978405 -42.706287 -24.180277 11.947541 -5.369239 0.191867 2.829690 -2.076873 0.289462 0.437769 1.776089 0.088452 0.000000 0.000000 0.000000 2.884532 -2.112991 0.010394 0.591382 0.590218 -1.808404 -7.037143 -2.061971 4.875736 0.000000 0.000000 0.000000 3.315310 -2.274332 0.168595 0.380088 -17.577068 -10.372311 -0.009121 -0.260250 -0.770618 -19.438679 2.059644 -38.335810 2.703776 -66.750933 3.261476 0.000000 0.000000 0.000000 3.091471 -2.095952 0.166958 1.055854 11.014912 15.637515 0.876660 1.616584 -1.148291 -10.588685 -5.605611 62.614195 -0.261775 41.853309 1.262056 0.000000 0.000000 0.000000 
4.209373 88.494652 5.688997 0.000000 0.000000 0.000000 -35.031166 -47.239426 -25.952719 3.407852 13.552998 5.504672 31.329316 1.668684 -6.581440 -12.922321 10.783539 10.221919 -5.776613 -0.292146 0.246944 0.000000 0.000000 0.000000 -32.338787 -42.954855 -23.488865 13.589120 -10.228068 -8.091705 22.885626 4.967758 -8.345062 -12.521247 -14.868308 7.665634 -1.486356 0.395905 0.188063 0.000000 0.000000 0.000000 -35.149444 -44.395441 -25.936696 11.832969 -5.345975 0.074327 2.855187 -2.078142 0.309975 0.531623 1.693495 0.175843 0.000000 0.000000 0.000000 2.937032 -2.100826 0.030207 0.671977 0.563556 -1.808478 -7.201745 -1.963813 4.733896 0.000000 0.000000 0.000000 3.362703 -2.251982 0.185283 0.442303 -17.588435 -10.224453 -0.174006 -0.310249 -0.922127 -19.377815 2.040760 -38.263498 2.748925 -66.720867 3.323610 0.000000 0.000000 0.000000 3.189516 -2.073374 0.175643 1.094288 11.089224 15.745702 1.019049 1.596865 -1.168697 -10.555720 -5.665096 62.589511 -0.238827 42.042642 1.253455 0.000000 0.000000 0.000000 
